<svg xmlns="http://www.w3.org/2000/svg" version="1.1" xmlns:xlink="http://www.w3.org/1999/xlink" xmlns:svgjs="http://svgjs.dev/svgjs" width="100%" height="100%" viewBox="0 0 1000 600"><rect width="1000" height="600" x="0" y="0" fill="#eb2188"/><g><rect width="333.3333333333333" height="333.3333333333333" rx="13.333333333333334" ry="13.333333333333334" y="148.32915134289863" fill="#080a52" transform="matrix(0.9912222622324959,0,0,0.9912222622324959,0,-12.230868682074373)" x="126.10693359375"/><path d="M255.7448472819108 388.5900676830327L239.64261112184758 389.9958184589113L236.41577411358094 382.6156268855489L322.19852032344164 252.87122004821407L282.42216314233303 254.27697082409261Q271.84708344197406 254.72425516187215 265.52120495052066 257.8232966450589Q259.19532645906725 260.92233812824566 255.96848945080058 267.59965431366874Q252.74165244253396 274.27697049909176 251.36785054792537 286.00220992516955L251.36785054792537 286.00220992516955L240.53717979740665 286.9287274819986Q240.53717979740665 286.9287274819986 241.11225966026603 283.0309639670627Q241.68733952312544 279.10125157085673 242.5180104361446 272.4239353854337Q243.31673246789376 265.77856808128064 243.89181233075317 257.8232966450589Q244.46689219361255 249.89997409010715 244.69053436250232 242.07249817896533L244.69053436250232 242.07249817896533L246.99085381393994 239.99582089641748L287.246444214098 242.51978251674487L346.6074656136962 244.14917546151315L349.1314272340236 250.82649164693618Q332.80554890507057 272.4239353854337 318.30075680850564 293.03096380456225Q303.79596471194077 313.60604334242083 292.070725285863 331.2098769221725Q280.3454858597852 348.81371050192416 272.1665722546737 361.465467484831Q264.0196075308322 374.1172244677378 260.345486184786 380.0916652652216L260.345486184786 380.0916652652216L307.02280172020744 378.4942212017233Q319.003632196445 378.23863015156354 326.3518748885373 369.0373523458131Q333.70011758062964 359.83607454006267 337.4061878079458 340.28335920284303L337.4061878079458 340.28335920284303L348.20490967719456 339.13319947712426Q348.20490967719456 339.13319947712426 347.5020342892553 343.2865540422199Q346.83110778258595 347.4399086073156 345.7767947006771 354.43671360543834Q344.7544305000381 361.465467484831 343.82791294320907 369.74022773375236Q342.90139538638005 378.01498798267374 342.4541110486005 386.2897482315952L342.4541110486005 386.2897482315952L339.0036318714441 389.9958184589113L255.7448472819108 388.5900676830327Z " fill="#eb2188" transform="matrix(0.9912222622324959,0,0,0.9912222622324959,0,-12.230868682074373)"/><path d="M544.4666555373542 350.20901926176265L542.773600223826 345.97638097794226L588.8388135460714 279.78262115041747L567.6756221269693 280.7937514071079Q562.2437363293998 281.14647126409295 559.0222283022699 282.58086534916544Q555.8242349322722 284.01525943423786 554.3663261900674 287.14270883283854Q552.931932104995 290.2936728885715 552.2500070481572 296.0312492288614L552.2500070481572 296.0312492288614L545.6659030511032 297.06589414268416Q545.6659030511032 297.06589414268416 545.9010496224266 294.76145774371525Q546.1597108508822 292.4805360018787 546.5124307078673 288.83576414636667Q546.84163590772 285.214506947987 547.1708411075728 280.88781003563724Q547.5235609645578 276.5611131232875 547.5235609645578 272.51659209652576L547.5235609645578 272.51659209652576L548.5346912212482 271.6700644397617L570.2152050972616 273.0103998963048L605.7693666813531 273.8569275530689L607.1097021378962 277.40764078005157Q595.0937123432727 292.8332558588637 585.0294390906331 306.7069035669418Q574.9416511808611 320.5805512750198 568.0988859553514 330.40967795633605Q561.2326060727094 340.2388046376523 558.6930231024171 343.9541204645613L558.6930231024171 343.9541204645613L583.7596476054869 342.4256677509595Q590.5318688595996 341.93185995118046 594.2471846865086 337.08784058191935Q597.9625005134176 332.26733586979054 599.6555558269458 321.77979878876886L599.6555558269458 321.77979878876886L606.4277770810585 320.9332711320048Q606.4277770810585 320.9332711320048 606.0045132526764 323.47285410229705Q605.5812494242944 326.0124370725893 604.9933829959859 329.986414127954Q604.4055165676776 333.96039118331873 603.9822527392955 338.7808958954475Q603.5589889109135 343.62491526470865 603.5589889109135 348.18675874838175L603.5589889109135 348.18675874838175L600.8548033406948 350.89094431860036L553.28465196198 349.3624916049985L544.4666555373542 350.20901926176265ZM670.7638789951287 351.5728693754381L670.7638789951287 351.5728693754381L670.2700711953496 350.3971365188213L670.9519962521874 343.789517864635Q676.877689849536 343.2721954077236 680.0756832195336 342.5902703508859Q683.2971912466636 341.93185995118046 684.661041360339 340.6620684660343Q686.0013768168822 339.39227698088825 686.0013768168822 337.34650181037506L686.0013768168822 337.34650181037506Q686.0013768168822 335.65344649684687 685.6721716170294 333.631185983466Q685.3429664171767 331.58541081295283 684.4964387604127 329.2339450997193L684.4964387604127 329.2339450997193L678.8999503629168 310.7749392508358Q675.8430449357131 310.61033665090946 670.3406151667466 310.61033665090946Q664.8381853977801 310.61033665090946 661.2874721707974 310.61033665090946L661.2874721707974 310.61033665090946Q656.3729088301393 310.61033665090946 651.0585963182315 311.10414445068847Q645.7207691491913 311.6214669075999 642.828466321914 311.9506721074526L642.828466321914 311.9506721074526L636.5735675247126 329.563150299572Q635.0451148111109 334.1249937832451 635.0451148111109 336.1707689537582L635.0451148111109 336.1707689537582Q635.0451148111109 339.8860847806673 637.5141538100062 341.50859612279845Q639.959678151769 343.1075928077973 645.2034466922798 343.1075928077973L645.2034466922798 343.1075928077973L654.8679707736699 343.1075928077973L655.1971759735225 343.789517864635L654.186045716832 351.0555469185267Q654.186045716832 351.0555469185267 650.6353324898494 350.726341718674Q647.0611046057344 350.3971365188213 641.6527334652972 350.1384752903656Q636.24436232486 349.87981406190994 630.6478739273641 349.87981406190994L630.6478739273641 349.87981406190994Q626.57983824347 349.87981406190994 622.2766559882526 349.97387269043924Q617.9499590759029 350.04441666183624 614.9871122772286 350.20901926176265Q612.0242654785543 350.3971365188213 612.0242654785543 350.3971365188213L612.0242654785543 350.3971365188213L613.3881155922297 342.4256677509595Q618.1145616758292 341.93185995118046 621.0068645031065 339.20415972382955Q623.8756526732515 336.49997415361094 626.57983824347 329.3985476996456L626.57983824347 329.3985476996456L659.5944168572693 242.8881241097829L670.2700711953496 239.99582128250563L671.6104066518928 239.99582128250563Q671.6104066518928 239.99582128250563 672.7155955371126 243.96979833787034Q673.8207844223323 247.96729005036738 675.7725009643161 254.97465787580342Q677.7242175063 262.0055403583718 680.3343444479892 271.058683354321Q682.9679860468109 280.13534100740253 685.9308328454852 290.2936728885715Q688.8936796441594 300.4520047697405 692.1151876712894 310.8454832222328Q695.3131810412871 321.2624763318575 698.534689068417 330.7388831561887L698.534689068417 330.7388831561887Q700.5804642389303 337.01729661052235 704.0371188373836 339.5568795808146Q707.5172880929692 342.09646255110687 714.783317146861 342.7783876079446L714.783317146861 342.7783876079446L715.136037003846 343.43679800764994L713.9367894900969 350.3971365188213Q713.9367894900969 350.3971365188213 710.6447374915699 350.20901926176265Q707.3526854930428 350.04441666183624 703.1200472092225 349.97387269043924Q698.887408925402 349.87981406190994 695.9951060981248 349.87981406190994L695.9951060981248 349.87981406190994Q689.5756047009972 349.87981406190994 683.7204550750456 350.30307789029195Q677.8888201062264 350.726341718674 674.3381068792437 351.14960554705607Q670.7638789951287 351.5728693754381 670.7638789951287 351.5728693754381ZM661.9693972276352 258.45482713138904L645.8853717491177 303.6499981397381L660.7936643710184 303.6499981397381Q664.1797749980747 303.6499981397381 668.9062210816742 303.3207929398854Q673.656181822406 302.9915877400327 676.524969992551 302.80347048297403L676.524969992551 302.80347048297403L663.145130084252 258.45482713138904L661.9693972276352 258.45482713138904ZM717.6756199741383 389.99581912967443L717.6756199741383 389.99581912967443L718.5221476309023 383.4117151326205Q723.9305187713395 382.7297900757828 725.5530301134706 380.4488683339462Q727.1520267984695 378.1444319349773 727.1520267984695 371.2076080809383L727.1520267984695 371.2076080809383Q727.1520267984695 368.50342251071976 727.2460854269989 363.2596539702089Q727.3166293983958 358.015885429698 727.4106880269252 352.3253384036728Q727.4812319983222 346.65830603477997 727.4812319983222 343.1075928077973L727.4812319983222 343.1075928077973L727.4812319983222 292.64513860180506Q727.4812319983222 286.9075622615152 725.6235740848676 284.6031258625463Q723.7659161714132 282.3222041207097 719.2040726877401 282.3222041207097L719.2040726877401 282.3222041207097L717.3229001171532 282.3222041207097L716.8290923173741 281.640279063872L717.3229001171532 276.06730532350844Q723.2485937145018 275.056175066818 728.6804795120713 273.95098618159824Q734.0888506525084 272.84579729637846 737.5690199080941 271.9992696396144Q741.0256745065475 271.15274198285033 741.0256745065475 271.15274198285033L741.0256745065475 271.15274198285033L742.0603194203702 272.51659209652576Q742.0603194203702 272.51659209652576 741.3783943635325 275.3853802666707Q740.6964693066948 278.25416843681563 740.3672641068421 281.640279063872L740.3672641068421 281.640279063872L741.0256745065475 282.8395265776211Q748.4798208174979 277.5957580371103 753.6530453866117 274.70345520983295Q758.8027552985932 271.83466703968804 760.68392786918 271.83466703968804L760.68392786918 271.83466703968804Q770.489539893364 271.83466703968804 777.779083604388 276.32596655196414Q785.0451126582798 280.7937514071079 789.2072069707032 288.83576414636667Q793.3457866259942 296.87777688562545 793.3457866259942 307.55343122370584L793.3457866259942 307.55343122370584Q793.3457866259942 316.7006328481844 790.0537346274673 324.7426455874432Q786.7381679718079 332.78465832670196 780.9065330029887 338.87495452397684Q775.0748980341695 344.9652507212518 767.4561491232927 348.44541997683746Q759.837400212416 351.9020745752908 751.1840063877164 351.9020745752908L751.1840063877164 351.9020745752908Q749.1617458743356 351.9020745752908 746.2929577041907 351.73747197536443Q743.4006548769133 351.5728693754381 741.1197331350768 351.4082667755117Q738.8388113932402 351.24366417558537 738.8388113932402 351.24366417558537L738.8388113932402 351.24366417558537Q738.8388113932402 355.47630245940576 738.9093553646373 359.87354334315256Q739.0034139931666 364.2707842268993 739.0034139931666 368.66802511064606L739.0034139931666 368.66802511064606Q739.0034139931666 376.4513766214491 740.6024106781654 379.2496208201971Q742.2249220202966 382.04786501894506 746.9513681038961 382.04786501894506L746.9513681038961 382.04786501894506Q748.3152182175716 382.04786501894506 749.8436709311734 381.95380639041565Q751.3721236447751 381.88326241901865 752.7124591013182 381.88326241901865L752.7124591013182 381.88326241901865L753.0651789583032 382.37707021879777L751.7013288446278 388.8200862730577Q749.679068331247 388.8200862730577 747.6332931607337 388.8200862730577Q745.6110326473529 388.8200862730577 743.659316105369 388.8200862730577Q741.7075995633852 388.8200862730577 739.6853390500044 388.8200862730577Q737.6395638794911 388.8200862730577 735.6173033661103 388.8200862730577L735.6173033661103 388.8200862730577Q730.8673426253786 388.8200862730577 726.7287629700875 389.07874750151336Q722.5901833147964 389.33740872996907 720.1211443159011 389.6666139298218Q717.6756199741383 389.99581912967443 717.6756199741383 389.99581912967443ZM755.9339671284482 342.5902703508859L755.9339671284482 342.5902703508859Q767.268031866234 342.5902703508859 773.8051065490233 334.90097746861215Q780.3186665746803 327.188169929206 780.3186665746803 313.8083300209071L780.3186665746803 313.8083300209071Q780.3186665746803 305.17845085333994 777.355819776006 298.3356856278303Q774.3929729773317 291.4694057451883 769.3138070367472 287.4013700612942Q764.2346410961627 283.33333437740015 757.9562276418292 283.33333437740015L757.9562276418292 283.33333437740015Q754.5701170147728 283.33333437740015 749.679068331247 285.63777077636905Q744.7645049905889 287.9186925182056 740.3672641068421 291.63400834511464L740.3672641068421 291.63400834511464Q740.0145442498571 298.57083219915364 739.6853390500044 306.8715061668681Q739.3326191930194 315.17218013458256 739.168016593093 323.6374567022234Q739.0034139931666 332.1027332698642 739.0034139931666 339.39227698088825L739.0034139931666 339.39227698088825Q742.3895246202229 340.7326124374314 747.0454267324253 341.6731987227248Q751.7013288446278 342.5902703508859 755.9339671284482 342.5902703508859ZM807.0548317341459 389.99581912967443L807.0548317341459 389.99581912967443L807.90135939091 383.4117151326205Q813.3332451884795 382.7297900757828 814.9322418734782 380.4488683339462Q816.5547532156095 378.1444319349773 816.5547532156095 371.2076080809383L816.5547532156095 371.2076080809383Q816.5547532156095 368.50342251071976 816.6252971870065 363.2596539702089Q816.7193558155359 358.015885429698 816.7898997869328 352.3253384036728Q816.8839584154622 346.65830603477997 816.8839584154622 343.1075928077973L816.8839584154622 343.1075928077973L816.8839584154622 292.64513860180506Q816.8839584154622 286.9075622615152 815.0263005020076 284.6031258625463Q813.1686425885532 282.3222041207097 808.5832844477477 282.3222041207097L808.5832844477477 282.3222041207097L806.7256265342933 282.3222041207097L806.2083040773819 281.640279063872L806.7256265342933 276.06730532350844Q812.6513201316418 275.056175066818 818.0596912720789 273.95098618159824Q823.4915770696484 272.84579729637846 826.9482316681018 271.9992696396144Q830.4284009236874 271.15274198285033 830.4284009236874 271.15274198285033L830.4284009236874 271.15274198285033L831.4395311803779 272.51659209652576Q831.4395311803779 272.51659209652576 830.7576061235402 275.3853802666707Q830.0991957238348 278.25416843681563 829.7464758668498 281.640279063872L829.7464758668498 281.640279063872L830.4284009236874 282.8395265776211Q837.8825472346379 277.5957580371103 843.0322571466194 274.70345520983295Q848.2054817157332 271.83466703968804 850.0631396291877 271.83466703968804L850.0631396291877 271.83466703968804Q859.8922663105039 271.83466703968804 867.1582953643956 276.32596655196414Q874.4478390754197 280.7937514071079 878.5864187307109 288.83576414636667Q882.7485130431342 296.87777688562545 882.7485130431342 307.55343122370584L882.7485130431342 307.55343122370584Q882.7485130431342 316.7006328481844 879.4329463874749 324.7426455874432Q876.140894388948 332.78465832670196 870.3092594201287 338.87495452397684Q864.454109794177 344.9652507212518 856.8353608833004 348.44541997683746Q849.2166119724236 351.9020745752908 840.5867328048564 351.9020745752908L840.5867328048564 351.9020745752908Q838.5644722914756 351.9020745752908 835.6721694641983 351.73747197536443Q832.8033812940533 351.5728693754381 830.5224595522168 351.4082667755117Q828.2180231532479 351.24366417558537 828.2180231532479 351.24366417558537L828.2180231532479 351.24366417558537Q828.2180231532479 355.47630245940576 828.3120817817772 359.87354334315256Q828.4061404103066 364.2707842268993 828.4061404103066 368.66802511064606L828.4061404103066 368.66802511064606Q828.4061404103066 376.4513766214491 830.0051370953054 379.2496208201971Q831.6041337803042 382.04786501894506 836.3540945210361 382.04786501894506L836.3540945210361 382.04786501894506Q837.7179446347116 382.04786501894506 839.222882691181 381.95380639041565Q840.7513354047828 381.88326241901865 842.1151855184582 381.88326241901865L842.1151855184582 381.88326241901865L842.444390718311 382.37707021879777L841.1040552617678 388.8200862730577Q839.0582800912547 388.8200862730577 837.0360195778737 388.8200862730577Q834.9902444073606 388.8200862730577 833.062042522509 388.8200862730577Q831.1103259805252 388.8200862730577 829.064550810012 388.8200862730577Q827.0422902966311 388.8200862730577 825.0200297832503 388.8200862730577L825.0200297832503 388.8200862730577Q820.2700690425185 388.8200862730577 816.1314893872275 389.07874750151336Q811.969395074804 389.33740872996907 809.5238707330411 389.6666139298218Q807.0548317341459 389.99581912967443 807.0548317341459 389.99581912967443ZM845.3366935455882 342.5902703508859L845.3366935455882 342.5902703508859Q856.670758283374 342.5902703508859 863.1843183090309 334.90097746861215Q869.697878334688 327.188169929206 869.697878334688 313.8083300209071L869.697878334688 313.8083300209071Q869.697878334688 305.17845085333994 866.7350315360137 298.3356856278303Q863.7721847373393 291.4694057451883 858.6930187967548 287.4013700612942Q853.6138528561703 283.33333437740015 847.3589540589692 283.33333437740015L847.3589540589692 283.33333437740015Q843.9728434319128 283.33333437740015 839.0582800912547 285.63777077636905Q834.1437167505965 287.9186925182056 829.7464758668498 291.63400834511464L829.7464758668498 291.63400834511464Q829.417270666997 298.57083219915364 829.064550810012 306.8715061668681Q828.7353456101594 315.17218013458256 828.570743010233 323.6374567022234Q828.4061404103066 332.1027332698642 828.4061404103066 339.39227698088825L828.4061404103066 339.39227698088825Q831.7922510373629 340.7326124374314 836.4481531495653 341.6731987227248Q841.1040552617678 342.5902703508859 845.3366935455882 342.5902703508859Z " fill="#080a52" transform="matrix(0.9912222622324959,0,0,0.9912222622324959,0,-12.230868682074373)"/></g></svg>